<?xml version="1.0" ?><!DOCTYPE svg  PUBLIC '-//W3C//DTD SVG 1.1//EN'  'http://www.w3.org/Graphics/SVG/1.1/DTD/svg11.dtd'><svg enable-background="new 0 0 512 512" height="512px" id="Black_x5F_cat" version="1.1" viewBox="0 0 512 512" width="512px" xml:space="preserve" xmlns="http://www.w3.org/2000/svg" xmlns:xlink="http://www.w3.org/1999/xlink"><g><path d="M330.464,146.338l-15.656-8.151l-2.521-1.311l-13.135-6.84c-1.886-0.983-4.021,0.784-3.415,2.819l2.979,10.018   c2.72,9.133,12.449,14.196,21.484,11.188l1.945-0.655l7.973-2.661C332.132,150.08,332.35,147.311,330.464,146.338z"/><path d="M379.828,142.873l2.979-10.018c0.605-2.035-1.529-3.803-3.415-2.819l-13.135,6.84l-2.521,1.311l-15.656,8.151   c-1.887,0.973-1.668,3.742,0.347,4.407l7.973,2.661l1.945,0.655C367.379,157.069,377.107,152.006,379.828,142.873z"/><path d="M389.094,436.461l-13.221-70.964l8.119-25.334c7.406-23.107,5.834-47.897-4.427-69.813   c-0.104-0.236-0.216-0.471-0.319-0.686c-4.412-9.337-7.131-19.171-8.082-29.23l-4.361-46.03   c16.558-12.002,31.166-32.064,31.166-50.289c0-0.938-0.037-1.88-0.098-2.825h0.098V46.673l-6.676,3.705   c-1.023,0.569-23.105,13.1-32.238,38.769c-6.059-2.43-12.599-3.824-19.467-3.824c-6.869,0-13.408,1.395-19.467,3.824   c-9.133-25.669-31.216-38.199-32.239-38.769l-6.675-3.705v94.617h0.097c-0.06,0.945-0.097,1.888-0.097,2.825   c0,12.742,7.539,28.043,20.168,40.93c3.564,3.637,7.286,6.836,11.053,9.572c-3.861,28.237-21.217,52.796-46.842,66.058   l-44.261,22.918l-0.167,0.091c-30.309,17.361-49.137,49.666-49.137,84.308c0,17.682,4.785,34.275,13.138,48.582   c-31.296-18.042-51.275-51.542-51.037-87.758c0.198-31.004,14.346-59.719,38.817-78.783l35.679-27.815   c28.419-22.146,44.719-55.516,44.719-91.552c0-18.962-7.438-36.771-20.944-50.146c-13.501-13.37-31.338-20.605-50.347-20.446   c-38.543,0.372-69.901,32.418-69.901,71.437v6.75c0,4.691,1.827,9.096,5.131,12.388c3.305,3.316,7.708,5.144,12.4,5.144   c9.667,0,17.531-7.864,17.531-17.531v-7.595c0-9.61,3.792-18.619,10.676-25.368c6.882-6.745,15.925-10.361,25.589-10.161   c9.208,0.187,17.889,4.055,24.446,10.894c6.783,7.075,10.551,16.716,10.338,26.451c-0.536,24.424-11.906,47.053-31.196,62.084   l-35.68,27.807c-16.198,12.63-29.527,29.061-38.546,47.517c-9.012,18.451-13.775,39.067-13.775,59.619   c0,74.891,60.929,135.82,135.82,135.82h31.255v-0.098c1.368,0.057,2.743,0.092,4.125,0.092v-8.986   c-49.213,0-89.251-39.631-89.251-88.344c0-31.398,17.062-60.688,44.536-76.463l44.176-22.873   c27.018-13.983,45.687-39.381,50.975-68.828c6.602,3.508,13.096,5.421,18.895,5.421c5.719,0,12.192-2.02,18.695-5.487l3.934,41.521   c1.049,11.1,4.045,21.941,8.916,32.249c0.074,0.156,0.15,0.313,0.219,0.469l0.052,0.115c9.316,19.865,10.748,42.348,4.031,63.306   l-8.812,27.493l13.326,71.534h-8.703v8.987h17.316c6.925,0,12.796,4.596,14.723,10.898h-35.262l-28.172-80.771   c-3.2-29.654-28.375-52.82-58.865-52.82v8.986c27.696,0,50.229,22.533,50.229,50.229c0,3.109-0.283,6.203-0.852,9.242   c-0.049,0.277-0.105,0.556-0.157,0.817c-0.579,2.849-1.411,5.653-2.477,8.343c-2.806,7.131-7.316,13.646-13.09,18.882l-0.304,0.263   c-6.54,5.817-14.482,9.828-22.982,11.603c-3.38,0.716-6.867,1.079-10.367,1.079v8.987h34.445c9.296,0,17.105,6.481,19.145,15.161   h-36.334v8.987h45.839v-4.493c0-15.793-12.853-28.643-28.649-28.643h-3.083c2.798-1.75,5.455-3.737,7.937-5.944l0.09-0.078   c0.133-0.114,0.266-0.23,0.349-0.308c6.745-6.117,12.06-13.795,15.366-22.197c0.764-1.932,1.414-3.92,1.971-5.939l23.58,67.603   h51.301v-4.493C412.941,447.563,402.291,436.746,389.094,436.461z M228.71,456.175c-67.075-3.229-120.652-58.808-120.652-126.668   c0-19.19,4.448-38.441,12.862-55.669c8.422-17.233,20.868-32.575,35.993-44.368l35.679-27.806   c21.433-16.702,34.066-41.846,34.662-68.986c0.265-12.106-4.416-24.09-12.84-32.877c-8.223-8.576-19.147-13.429-30.762-13.663   c-12.052-0.235-23.446,4.28-32.07,12.732c-8.626,8.455-13.376,19.746-13.376,31.795v7.595c0,4.704-3.827,8.531-8.531,8.531   c-2.281,0-4.421-0.887-6.036-2.508c-1.609-1.603-2.496-3.742-2.496-6.023v-6.75c0-34.104,27.359-62.112,60.988-62.437   c16.553-0.185,32.145,6.175,43.927,17.842c11.786,11.671,18.277,27.208,18.277,43.75c0,33.242-15.036,64.023-41.252,84.454   l-35.678,27.814c-26.657,20.767-42.069,52.048-42.285,85.823c-0.296,45.148,28.191,86.411,70.976,102.997   C205.076,441.992,216.177,450.354,228.71,456.175z M388.98,62.943v51.933c-5.352-8.643-12.842-16.326-21.797-21.691   C372.152,78.466,382.241,68.363,388.98,62.943z M290.194,62.944c6.742,5.421,16.829,15.522,21.797,30.24   c-8.955,5.365-16.444,13.049-21.797,21.691V62.944z M339.588,196.261c-18.77,0-49.394-29.132-49.394-52.146   c0-22.56,22.032-49.806,49.394-49.806s49.393,27.246,49.393,49.806c0,10.382-6.656,23.327-17.807,34.628   C360.676,189.385,348.277,196.261,339.588,196.261z"/></g></svg>